<svg width="72" height="68" xmlns="http://www.w3.org/2000/svg" xmlns:xlink="http://www.w3.org/1999/xlink" xml:space="preserve" overflow="hidden"><g transform="translate(-2576 -138)"><g><g><g><g><path d="M68.6106 65.776 44.4519 65.776C43.9712 65.776 43.5822 65.387 43.5822 64.9062L43.5822 43.1635C43.5822 42.6827 43.9712 42.2938 44.4519 42.2938L55.6615 42.2938 55.6615 34.3697 13.9154 34.3697 13.9154 42.2938 25.125 42.2938C25.6057 42.2938 25.9947 42.6827 25.9947 43.1635L25.9947 64.9062C25.9947 65.387 25.6057 65.776 25.125 65.776L0.966362 65.776C0.485604 65.776 0.0966503 65.387 0.0966503 64.9062L0.0966503 43.1635C0.0966503 42.6827 0.485604 42.2938 0.966362 42.2938L12.176 42.2938 12.176 33.5C12.176 33.0193 12.5649 32.6303 13.0457 32.6303L33.9188 32.6303 33.9188 24.7062 22.7091 24.7062C22.2284 24.7062 21.8394 24.3173 21.8394 23.8365L21.8394 2.09375C21.8394 1.61299 22.2284 1.22403 22.7091 1.22403L46.8678 1.22403C47.3485 1.22403 47.7375 1.61299 47.7375 2.09375L47.7375 23.8365C47.7375 24.3173 47.3485 24.7062 46.8678 24.7062L35.6582 24.7062 35.6582 32.6303 56.5312 32.6303C57.012 32.6303 57.401 33.0193 57.401 33.5L57.401 42.2938 68.6106 42.2938C69.0913 42.2938 69.4803 42.6827 69.4803 43.1635L69.4803 64.9062C69.4803 65.387 69.0913 65.776 68.6106 65.776ZM45.3216 64.0365 67.7384 64.0365 67.7384 44.0332 45.3216 44.0332 45.3216 64.0365ZM1.83607 64.0365 24.2553 64.0365 24.2553 44.0332 1.83607 44.0332 1.83607 64.0365ZM23.5788 22.9668 45.9981 22.9668 45.9981 2.96346 23.5788 2.96346 23.5788 22.9668ZM54.1154 48.8649 49.2837 48.8649 49.2837 47.1255 54.1154 47.1255 54.1154 48.8649ZM10.6298 48.8649 5.79809 48.8649 5.79809 47.1255 10.6298 47.1255 10.6298 48.8649ZM32.3726 7.79519 27.5409 7.79519 27.5409 6.05577 32.3726 6.05577 32.3726 7.79519Z" fill="#FFFFFF" fill-rule="nonzero" fill-opacity="1" transform="matrix(1.03483 0 0 1 2576 139)"/></g></g></g></g></g></svg>