<svg width="32" height="32" xmlns="http://www.w3.org/2000/svg" viewBox="0 0 96 96">
  <defs>
    <linearGradient id="automationGrad" x1="0" y1="96" x2="96" y2="0" gradientUnits="userSpaceOnUse">
      <stop offset=".1" stop-color="#a56eff"/>
      <stop offset=".9" stop-color="#0f62fe"/>
    </linearGradient>
  </defs>
  <path d="M66.4931 95.3425C60.7818 95.3425 56.137 90.6945 56.137 84.9863L56.137 57.2466 58.3592 57.2466 58.3592 84.9863C58.3592 89.474 62.0085 93.1233 66.4962 93.1233 70.9838 93.1233 74.6332 89.474 74.6332 84.9863L74.6332 69.5754 76.8555 69.5754 76.8555 84.9863C76.8493 90.6976 72.2045 95.3425 66.4931 95.3425ZM29.5068 95.3425C23.7955 95.3425 19.1507 90.6945 19.1507 84.9863L19.1507 57.2466 21.3699 57.2466 21.3699 84.9863C21.3699 89.474 25.0222 93.1233 29.5068 93.1233 33.9915 93.1233 37.6438 89.474 37.6438 84.9863L37.6438 11.0137C37.6438 5.3024 42.2887 0.657534 48 0.657534 53.7113 0.657534 58.3562 5.3024 58.3562 11.0137L58.3562 38.7534 56.137 38.7534 56.137 11.0137C56.137 6.52603 52.4877 2.87671 48 2.87671 43.5123 2.87671 39.863 6.5291 39.863 11.0137L39.863 84.9863C39.863 90.6976 35.2182 95.3425 29.5068 95.3425ZM82.6901 61.1148 81.1182 59.5428 91.5544 49.1097 48 49.1097 48 46.8903 91.5544 46.8903 81.1182 36.4541 82.6901 34.8852 95.8017 48 82.6901 61.1148ZM29.5068 49.1097 1.76712 49.1097 1.76712 46.8903 29.5068 46.8903 29.5068 49.1097ZM21.3699 38.7534 19.1507 38.7534 19.1507 11.0137C19.1507 6.52603 15.4983 2.87671 11.0137 2.87671 6.5291 2.87671 2.87671 6.52603 2.87671 11.0137L2.87671 38.7534 0.657534 38.7534 0.657534 11.0137C0.657534 5.3024 5.3024 0.657534 11.0137 0.657534 16.725 0.657534 21.3699 5.3024 21.3699 11.0137L21.3699 38.7534Z" fill="url(#automationGrad)" fill-rule="nonzero"/>
</svg>
