<svg width="86" height="96" xmlns="http://www.w3.org/2000/svg" xmlns:xlink="http://www.w3.org/1999/xlink" xml:space="preserve" overflow="hidden"><g transform="translate(-2602 -1012)"><g><g><g><g><path d="M81.4932 95.3425 75.3288 95.3425C74.7154 95.3425 74.2192 94.8463 74.2192 94.2329L74.2192 88.0686C74.2192 87.4551 74.7154 86.9589 75.3288 86.9589L81.4932 86.9589C82.1066 86.9589 82.6027 87.4551 82.6027 88.0686L82.6027 94.2329C82.6027 94.8463 82.1066 95.3425 81.4932 95.3425ZM76.4384 93.1233 80.3805 93.1233 80.3805 89.1781 76.4384 89.1781 76.4384 93.1233ZM44.5068 95.3425 38.3424 95.3425C37.7291 95.3425 37.2329 94.8463 37.2329 94.2329L37.2329 88.0686C37.2329 87.4551 37.7291 86.9589 38.3424 86.9589L44.5068 86.9589C45.1203 86.9589 45.6164 87.4551 45.6164 88.0686L45.6164 94.2329C45.6164 94.8463 45.1203 95.3425 44.5068 95.3425ZM39.4521 93.1233 43.3973 93.1233 43.3973 89.1781 39.4521 89.1781 39.4521 93.1233ZM7.52055 95.3425 1.35616 95.3425C0.742809 95.3425 0.246575 94.8463 0.246575 94.2329L0.246575 88.0686C0.246575 87.4551 0.742809 86.9589 1.35616 86.9589L7.52055 86.9589C8.13391 86.9589 8.63014 87.4551 8.63014 88.0686L8.63014 94.2329C8.63014 94.8463 8.13391 95.3425 7.52055 95.3425ZM2.46575 93.1233 6.41096 93.1233 6.41096 89.1781 2.46575 89.1781 2.46575 93.1233ZM61.0275 94.2329 58.8083 94.2329 58.8083 1.76712 61.0305 1.76712 61.0275 94.2329ZM24.041 94.2329 21.822 94.2329 21.822 1.76712 24.041 1.76712 24.041 94.2329ZM44.5068 73.7672 38.3424 73.7672C37.7291 73.7672 37.2329 73.2709 37.2329 72.6575L37.2329 66.4931C37.2329 65.8798 37.7291 65.3836 38.3424 65.3836L44.5068 65.3836C45.1203 65.3836 45.6164 65.8798 45.6164 66.4931L45.6164 72.6575C45.6164 73.2709 45.1203 73.7672 44.5068 73.7672ZM39.4521 71.5479 43.3973 71.5479 43.3973 67.6028 39.4521 67.6028 39.4521 71.5479ZM7.52055 73.7672 1.35616 73.7672C0.742809 73.7672 0.246575 73.2709 0.246575 72.6575L0.246575 66.4931C0.246575 65.8798 0.742809 65.3836 1.35616 65.3836L7.52055 65.3836C8.13391 65.3836 8.63014 65.8798 8.63014 66.4931L8.63014 72.6575C8.63014 73.2709 8.13391 73.7672 7.52055 73.7672ZM2.46575 71.5479 6.41096 71.5479 6.41096 67.6028 2.46575 67.6028 2.46575 71.5479ZM81.4932 52.1918 75.3288 52.1918C74.7154 52.1918 74.2192 51.6956 74.2192 51.0823L74.2192 44.9177C74.2192 44.3044 74.7154 43.8082 75.3288 43.8082L81.4932 43.8082C82.1066 43.8082 82.6027 44.3044 82.6027 44.9177L82.6027 51.0823C82.6027 51.6956 82.1066 52.1918 81.4932 52.1918ZM76.4384 49.9726 80.3805 49.9726 80.3805 46.0274 76.4384 46.0274 76.4384 49.9726ZM44.5068 52.1918 38.3424 52.1918C37.7291 52.1918 37.2329 51.6956 37.2329 51.0823L37.2329 44.9177C37.2329 44.3044 37.7291 43.8082 38.3424 43.8082L44.5068 43.8082C45.1203 43.8082 45.6164 44.3044 45.6164 44.9177L45.6164 51.0823C45.6164 51.6956 45.1203 52.1918 44.5068 52.1918ZM39.4521 49.9726 43.3973 49.9726 43.3973 46.0274 39.4521 46.0274 39.4521 49.9726ZM7.52055 52.1918 1.35616 52.1918C0.742809 52.1918 0.246575 51.6956 0.246575 51.0823L0.246575 44.9177C0.246575 44.3044 0.742809 43.8082 1.35616 43.8082L7.52055 43.8082C8.13391 43.8082 8.63014 44.3044 8.63014 44.9177L8.63014 51.0823C8.63014 51.6956 8.13391 52.1918 7.52055 52.1918ZM2.46575 49.9726 6.41096 49.9726 6.41096 46.0274 2.46575 46.0274 2.46575 49.9726ZM81.4932 30.6164 75.3288 30.6164C74.7154 30.6164 74.2192 30.1202 74.2192 29.5068L74.2192 23.3425C74.2192 22.7291 74.7154 22.2328 75.3288 22.2328L81.4932 22.2328C82.1066 22.2328 82.6027 22.7291 82.6027 23.3425L82.6027 29.5068C82.6027 30.1202 82.1066 30.6164 81.4932 30.6164ZM76.4384 28.3973 80.3805 28.3973 80.3805 24.452 76.4384 24.452 76.4384 28.3973ZM44.5068 30.6164 38.3424 30.6164C37.7291 30.6164 37.2329 30.1202 37.2329 29.5068L37.2329 23.3425C37.2329 22.7291 37.7291 22.2328 38.3424 22.2328L44.5068 22.2328C45.1203 22.2328 45.6164 22.7291 45.6164 23.3425L45.6164 29.5068C45.6164 30.1202 45.1203 30.6164 44.5068 30.6164ZM39.4521 28.3973 43.3973 28.3973 43.3973 24.452 39.4521 24.452 39.4521 28.3973ZM81.4932 9.0411 75.3288 9.0411C74.7154 9.0411 74.2192 8.54487 74.2192 7.93151L74.2192 1.76712C74.2192 1.15377 74.7154 0.657534 75.3288 0.657534L81.4932 0.657534C82.1066 0.657534 82.6027 1.15377 82.6027 1.76712L82.6027 7.93151C82.6027 8.54487 82.1066 9.0411 81.4932 9.0411ZM76.4384 6.82192 80.3805 6.82192 80.3805 2.87671 76.4384 2.87671 76.4384 6.82192ZM7.52055 9.0411 1.35616 9.0411C0.742809 9.0411 0.246575 8.54487 0.246575 7.93151L0.246575 1.76712C0.246575 1.15377 0.742809 0.657534 1.35616 0.657534L7.52055 0.657534C8.13391 0.657534 8.63014 1.15377 8.63014 1.76712L8.63014 7.93151C8.63014 8.54487 8.13391 9.0411 7.52055 9.0411ZM2.46575 6.82192 6.41096 6.82192 6.41096 2.87671 2.46575 2.87671 2.46575 6.82192Z" fill="#FFFFFF" fill-rule="nonzero" fill-opacity="1" transform="matrix(1.01389 0 0 1 2603 1012)"/></g></g></g></g></g></svg>