<svg width="32" height="32" xmlns="http://www.w3.org/2000/svg" viewBox="0 0 96 85">
  <defs>
    <linearGradient id="hybridGrad" x1="0" y1="85" x2="96" y2="0" gradientUnits="userSpaceOnUse">
      <stop offset=".1" stop-color="#a56eff"/>
      <stop offset=".9" stop-color="#0f62fe"/>
    </linearGradient>
  </defs>
  <path d="M84.9863 9.06164C84.1356 9.06164 83.4452 8.37123 83.4452 7.52055 83.4452 6.66986 84.1356 5.97945 84.9863 5.97945 85.837 5.97945 86.5274 6.66986 86.5274 7.52055 86.5274 8.37123 85.837 9.06164 84.9863 9.06164ZM86.5274 19.8492C86.5274 18.9987 85.837 18.3083 84.9863 18.3083 84.1356 18.3083 83.4452 18.9987 83.4452 19.8492 83.4452 20.7 84.1356 21.3904 84.9863 21.3904 85.837 21.3904 86.5274 20.7 86.5274 19.8492ZM15.2055 78.411C15.2055 78.2816 15.1993 78.1552 15.1901 78.0288L26.3137 73.8554C29.3435 77.326 33.7973 79.5206 38.7534 79.5206L83.4452 79.5206C90.0041 79.5206 95.3425 74.1822 95.3425 67.6233 95.3425 61.428 90.5835 56.324 84.5301 55.7753 84.2743 50.2922 82.0643 45.3082 78.5815 41.5141L89.2675 29.7616C89.8346 30.0452 90.4726 30.2086 91.1477 30.2086 93.4593 30.2086 95.3394 28.3284 95.3394 26.0168 95.3394 24.0905 94.0295 22.4629 92.2572 21.973L92.2572 1.35616C92.2572 0.742809 91.761 0.246575 91.1477 0.246575L57.2466 0.246575C56.6332 0.246575 56.137 0.742809 56.137 1.35616L56.137 18.7397 54.2908 18.7397C50.4226 11.2253 42.5845 6.41096 34.1301 6.41096 21.977 6.41096 12.0277 16.0182 11.4699 28.0356 5.41644 28.5842 0.657534 33.6884 0.657534 39.8835 0.657534 46.4424 5.99281 51.7808 12.5548 51.7808L20.2603 51.7808 20.2603 49.5616 12.5548 49.5616C7.21952 49.5616 2.87671 45.2219 2.87671 39.8835 2.87671 34.5451 7.21952 30.2054 12.5548 30.2054 13.1682 30.2054 13.6644 29.7092 13.6644 29.0959 13.6644 17.8119 22.8463 8.63014 34.1301 8.63014 41.9682 8.63014 49.2175 13.2226 52.5987 20.327 52.7836 20.7123 53.1751 20.9589 53.6003 20.9589L56.134 20.9589 56.134 26.0136C56.134 26.6271 56.6301 27.1233 57.2435 27.1233L87.1038 27.1233C87.2178 27.5364 87.3935 27.9215 87.6185 28.2761L77.0003 39.9544C72.9842 36.3482 67.6767 34.1538 61.8667 34.1538 55.8719 34.1538 50.1822 36.5764 46.0058 40.6664L36.0041 28.4424C36.491 27.7582 36.7777 26.9198 36.7777 26.0168 36.7777 23.7052 34.8976 21.825 32.5859 21.825 30.2743 21.825 28.3973 23.702 28.3973 26.0136 28.3973 28.3254 30.2773 30.2054 32.589 30.2054 33.1931 30.2054 33.7695 30.076 34.2904 29.8448L44.4863 42.3061C43.4199 43.5791 42.4859 44.9723 41.7123 46.4794L38.7534 46.4794C29.6424 46.4794 22.2328 53.8922 22.2328 63.0001 22.2328 66.3226 23.2192 69.4202 24.9144 72.0124L14.4072 75.9514C13.6459 74.9004 12.4069 74.2192 11.0137 74.2192 8.70206 74.2192 6.82192 76.0993 6.82192 78.411 6.82192 80.7226 8.70206 82.6027 11.0137 82.6027 13.3253 82.6027 15.2055 80.7226 15.2055 78.411ZM12.9863 78.411C12.9863 79.4989 12.1017 80.3836 11.0137 80.3836 9.92569 80.3836 9.0411 79.4989 9.0411 78.411 9.0411 77.323 9.92569 76.4384 11.0137 76.4384 12.1017 76.4384 12.9863 77.323 12.9863 78.411ZM53.9857 63.4777C55.2339 65.6939 57.6103 67.1918 60.3288 67.1918 64.3418 67.1918 67.6028 63.9277 67.6028 59.9178 67.6028 58.1948 67.0017 56.6107 65.997 55.3593L77.0867 43.1599C80.3477 46.7876 82.3356 51.5866 82.3356 56.8357 82.3356 57.449 82.8318 57.9452 83.4452 57.9452 88.7805 57.9452 93.1233 62.2849 93.1233 67.6233 93.1233 72.9617 88.7836 77.3013 83.4452 77.3013L38.7534 77.3013C34.765 77.3013 31.1528 75.6617 28.5545 73.0171L53.9857 63.4777ZM42.3997 48.6987C42.8281 48.6987 43.2195 48.452 43.4013 48.0636 46.7825 40.9593 54.0318 36.3698 61.8699 36.3698 67.1065 36.3698 71.8901 38.3486 75.5148 41.5942L64.3602 53.8644C63.2044 53.0938 61.8206 52.6438 60.3288 52.6438 56.3157 52.6438 53.0549 55.9079 53.0549 59.9178 53.0549 60.4263 53.1102 60.9226 53.2089 61.4003L27.0535 71.211C25.4137 68.887 24.452 66.0514 24.452 63.0001 24.452 55.1127 30.8691 48.6987 38.7534 48.6987L42.3997 48.6987ZM65.3836 59.9178C65.3836 62.7042 63.1182 64.9725 60.3288 64.9725 57.5394 64.9725 55.274 62.7072 55.274 59.9178 55.274 57.1284 57.5394 54.8631 60.3288 54.8631 63.1182 54.8631 65.3836 57.1316 65.3836 59.9178ZM93.1233 26.0136C93.1233 27.1017 92.2386 27.9862 91.1507 27.9862 90.0627 27.9862 89.1781 27.1017 89.1781 26.0136 89.1781 24.9257 90.0627 24.041 91.1507 24.041 92.2386 24.041 93.1233 24.9257 93.1233 26.0136ZM34.5616 26.0136C34.5616 27.1017 33.6771 27.9862 32.589 27.9862 31.501 27.9862 30.6164 27.1017 30.6164 26.0136 30.6164 24.9257 31.501 24.041 32.589 24.041 33.6771 24.041 34.5616 24.9257 34.5616 26.0136ZM58.3562 14.7945 90.0412 14.7945 90.0412 21.973C88.6202 22.3613 87.5014 23.4863 87.1099 24.9071L58.3562 24.9071 58.3562 14.7945ZM58.3562 2.46575 90.0412 2.46575 90.0412 12.5753 58.3562 12.5753 58.3562 2.46575ZM78.8219 18.7397 63.411 18.7397 63.411 20.9589 78.8219 20.9589 78.8219 18.7397ZM78.8219 6.41096 63.411 6.41096 63.411 8.63014 78.8219 8.63014 78.8219 6.41096Z" fill="url(#hybridGrad)" fill-rule="nonzero"/>
</svg>
