<svg width="77" height="78" xmlns="http://www.w3.org/2000/svg" xmlns:xlink="http://www.w3.org/1999/xlink" xml:space="preserve" overflow="hidden"><g transform="translate(-2345 -302)"><g><g><g><g><path d="M57.6552 75.7379C57.5028 75.7379 57.3529 75.6961 57.2153 75.62L40.017 65.7924C39.7418 65.6352 39.5723 65.3428 39.5723 65.0259L39.5723 56.0828 36.4275 56.0828 36.4275 65.0259C36.4275 65.3428 36.258 65.6352 35.9829 65.7924L18.7846 75.62C18.5119 75.7723 18.1801 75.7723 17.9074 75.62L0.70916 65.7924C0.431531 65.6352 0.262005 65.3428 0.262005 65.0259L0.262005 45.3707C0.262005 45.0537 0.431531 44.7614 0.706703 44.6041L17.9049 34.7766C18.1778 34.6218 18.5094 34.6218 18.7821 34.7766L26.4821 39.1768 28.3247 35.9509 20.3594 31.4007C20.0867 31.2411 19.9172 30.9463 19.9172 30.6293L19.9172 10.9741C19.9172 10.6572 20.0867 10.3624 20.3618 10.2076L37.5601 0.379993C37.8329 0.225209 38.1646 0.225209 38.4373 0.379993L55.6355 10.2076C55.9132 10.3624 56.0828 10.6572 56.0828 10.9741L56.0828 30.6293C56.0828 30.9463 55.9132 31.2411 55.6355 31.3959L47.6727 35.946 49.5154 39.172 57.2153 34.7716C57.4881 34.6168 57.8197 34.6168 58.0924 34.7716L75.2907 44.5992C75.5659 44.7564 75.7379 45.0512 75.7379 45.3657L75.7379 65.0209C75.7379 65.3379 75.5684 65.6302 75.2907 65.7874L58.0924 75.615C57.9573 75.6986 57.8074 75.7379 57.6552 75.7379ZM41.3414 64.5123 57.6552 73.8339 73.969 64.5123 73.969 45.8842 57.6552 36.5627 50.3949 40.7124 56.8222 51.9625C57.09 51.8937 57.3677 51.8569 57.6552 51.8569 59.4978 51.8569 60.9966 53.3555 60.9966 55.1983 60.9966 57.0409 59.4978 58.5397 57.6552 58.5397 56.1196 58.5397 54.8223 57.4954 54.4317 56.0828L41.3414 56.0828 41.3414 64.5123ZM2.03097 64.5123 18.3448 73.8339 34.6586 64.5123 34.6586 56.0828 21.5683 56.0828C21.18 57.4954 19.8828 58.5397 18.3448 58.5397 16.5021 58.5397 15.0034 57.0409 15.0034 55.1983 15.0034 53.3555 16.5021 51.8569 18.3448 51.8569 18.6322 51.8569 18.9098 51.8962 19.1752 51.9625L25.6049 40.7124 18.3448 36.5627 2.03097 45.8842C2.03097 45.8842 2.03097 64.5123 2.03097 64.5123ZM57.6552 53.6259C56.7879 53.6259 56.0828 54.331 56.0828 55.1983 56.0828 56.0656 56.7879 56.7707 57.6552 56.7707 58.5224 56.7707 59.2276 56.0656 59.2276 55.1983 59.2276 54.331 58.5224 53.6259 57.6552 53.6259ZM18.3448 53.6259C17.4775 53.6259 16.7724 54.331 16.7724 55.1983 16.7724 56.0656 17.4775 56.7707 18.3448 56.7707 19.212 56.7707 19.9172 56.0656 19.9172 55.1983 19.9172 54.331 19.212 53.6259 18.3448 53.6259ZM41.3414 54.3138 54.4317 54.3138C54.584 53.7511 54.8862 53.2451 55.2891 52.8421L48.8595 41.5896 41.3414 45.8842 41.3414 54.3138ZM36.4275 54.3138 39.5723 54.3138 39.5723 45.3707C39.5723 45.0537 39.7418 44.7614 40.017 44.6041L47.9798 40.054 46.1372 36.828 38.4373 41.2283C38.1646 41.3807 37.8329 41.3807 37.5601 41.2283L29.8628 36.828 28.02 40.054 35.9829 44.6041C36.258 44.7614 36.4275 45.0562 36.4275 45.3707 36.4275 45.3707 36.4275 54.3138 36.4275 54.3138ZM21.5683 54.3138 34.661 54.3138 34.661 45.8842 27.1429 41.5896 20.7133 52.8421C21.1112 53.2451 21.4134 53.7486 21.5683 54.3138ZM30.7398 35.2901 38 39.4373 45.2601 35.2901 38.8304 24.0375C38.2972 24.1751 37.7002 24.1751 37.167 24.0375L30.7398 35.2901ZM40.366 23.1579 46.7957 34.4104 54.3138 30.1133 54.3138 11.4876 38 2.16616 21.6861 11.4876 21.6861 30.1158 29.2043 34.4129 35.6339 23.1603C35.0319 22.5535 34.6586 21.7205 34.6586 20.8017 34.6586 18.959 36.1573 17.4603 38 17.4603 39.8426 17.4603 41.3414 18.959 41.3414 20.8017 41.3414 21.7205 40.9679 22.5535 40.366 23.1579ZM38 19.2293C37.1327 19.2293 36.4275 19.9344 36.4275 20.8017 36.4275 21.669 37.1327 22.3741 38 22.3741 38.8672 22.3741 39.5723 21.669 39.5723 20.8017 39.5723 19.9344 38.8672 19.2293 38 19.2293Z" fill="#FFFFFF" fill-rule="nonzero" fill-opacity="1" transform="matrix(1 0 0 1.01316 2346 303)"/></g></g></g></g></g></svg>