<svg width="72" height="78" xmlns="http://www.w3.org/2000/svg" xmlns:xlink="http://www.w3.org/1999/xlink" xml:space="preserve" overflow="hidden"><g transform="translate(-2586 -350)"><g><g><g><g><path d="M35.5 75.9963C15.9799 75.9963 0.098547 60.1149 0.098547 40.5949L0.098547 1.15046C0.098547 0.659869 0.495456 0.262959 0.986047 0.262959L70.0139 0.262959C70.5044 0.262959 70.9014 0.659869 70.9014 1.15046L70.9014 40.5949C70.9014 60.1149 55.02 75.9963 35.5 75.9963ZM36.3875 63.6699 36.3875 74.2089C45.6494 73.9649 53.992 69.9613 59.9382 63.6699L36.3875 63.6699ZM1.87355 2.03796 1.87355 40.5949C1.87355 58.838 16.4803 73.7381 34.6125 74.2114L34.6125 53.6905C33.1925 53.3009 32.1472 51.9969 32.1472 50.456 32.1472 48.9152 33.1925 47.6135 34.6125 47.2216L34.6125 16.7113C33.1925 16.3217 32.1472 15.0201 32.1472 13.4769 32.1472 11.9336 33.1925 10.6344 34.6125 10.2424L34.6125 2.03796 1.87355 2.03796ZM36.3875 61.8949 61.5013 61.8949C64.0479 58.7912 66.0546 55.2263 67.3661 51.346L38.7344 51.346C38.4213 52.4824 37.5239 53.3774 36.3875 53.6905L36.3875 61.8949ZM35.5 48.8782C34.6297 48.8782 33.9221 49.5857 33.9221 50.456 33.9221 51.3263 34.6297 52.0338 35.5 52.0338 36.3701 52.0338 37.0776 51.3263 37.0776 50.456 37.0776 49.5857 36.3701 48.8782 35.5 48.8782ZM38.7344 49.5685 67.911 49.5685C68.7024 46.7113 69.1264 43.7012 69.1264 40.5949L69.1264 39.0171 36.3875 39.0171 36.3875 47.2241C37.5239 47.5346 38.4213 48.432 38.7344 49.5685ZM36.3875 37.2421 69.1264 37.2421 69.1264 26.6907 63.3872 26.6907C62.9976 28.1107 61.6935 29.156 60.1528 29.156 58.6119 29.156 57.3103 28.1107 56.9183 26.6907L36.3875 26.6907 36.3875 37.2421ZM60.1528 24.2255C59.2825 24.2255 58.575 24.933 58.575 25.8032 58.575 26.6735 59.2825 27.381 60.1528 27.381 61.0229 27.381 61.7306 26.6735 61.7306 25.8032 61.7306 24.933 61.0229 24.2255 60.1528 24.2255ZM63.3872 24.9157 69.1264 24.9157 69.1264 14.3644 38.7344 14.3644C38.4213 15.5009 37.5239 16.3982 36.3875 16.7113L36.3875 24.9182 56.9207 24.9182C57.3103 23.4982 58.6144 22.453 60.1551 22.453 61.696 22.453 62.9951 23.4957 63.3872 24.9157ZM35.5 11.8991C34.6297 11.8991 33.9221 12.6066 33.9221 13.4769 33.9221 14.3471 34.6297 15.0546 35.5 15.0546 36.3701 15.0546 37.0776 14.3471 37.0776 13.4769 37.0776 12.6066 36.3701 11.8991 35.5 11.8991ZM38.7344 12.5894 69.1264 12.5894 69.1264 2.03796 36.3875 2.03796 36.3875 10.2449C37.5239 10.5555 38.4213 11.4529 38.7344 12.5894Z" fill="#FFFFFF" fill-rule="nonzero" fill-opacity="1" transform="matrix(1 0 0 1.00971 2587 351)"/></g></g></g></g></g></svg>