<svg width="72" height="72" xmlns="http://www.w3.org/2000/svg" xmlns:xlink="http://www.w3.org/1999/xlink" xml:space="preserve" overflow="hidden"><g transform="translate(-2584 -124)"><g><path d="M2600.82 170.793C2593.59 166.925 2589.1 159.435 2589.1 151.25 2589.1 139.507 2598.26 129.78 2609.95 129.102L2610.05 130.9C2599.31 131.52 2590.9 140.463 2590.9 151.25 2590.9 158.77 2595.03 165.653 2601.68 169.207L2600.82 170.793ZM2655.9 163.75C2655.9 151.537 2645.96 141.6 2633.75 141.6 2630.57 141.6 2627.5 142.257 2624.63 143.555L2625.37 145.195C2628 144.005 2630.82 143.4 2633.75 143.4 2644.97 143.4 2654.1 152.53 2654.1 163.75 2654.1 165.637 2653.84 167.507 2653.33 169.313L2655.06 169.8C2655.62 167.84 2655.9 165.803 2655.9 163.75ZM2635.9 175.053 2634.1 174.95C2633.48 185.69 2624.54 194.1 2613.75 194.1 2607.2 194.1 2601.01 190.917 2597.19 185.58L2595.72 186.63C2599.88 192.435 2606.61 195.903 2613.75 195.903 2625.49 195.9 2635.22 186.743 2635.9 175.053ZM2625.9 130C2625.9 126.747 2623.25 124.1 2620 124.1 2616.75 124.1 2614.1 126.747 2614.1 130 2614.1 133.252 2616.75 135.9 2620 135.9 2623.26 135.9 2625.9 133.252 2625.9 130ZM2624.1 130C2624.1 132.26 2622.26 134.1 2620 134.1 2617.74 134.1 2615.9 132.26 2615.9 130 2615.9 127.74 2617.74 125.9 2620 125.9 2622.26 125.9 2624.1 127.74 2624.1 130ZM2655.9 180C2655.9 176.745 2653.25 174.1 2650 174.1 2646.75 174.1 2644.1 176.747 2644.1 180 2644.1 183.253 2646.75 185.9 2650 185.9 2653.25 185.9 2655.9 183.255 2655.9 180ZM2654.1 180C2654.1 182.26 2652.26 184.1 2650 184.1 2647.74 184.1 2645.9 182.263 2645.9 180 2645.9 177.737 2647.74 175.9 2650 175.9 2652.26 175.9 2654.1 177.74 2654.1 180ZM2595.9 177.5C2595.9 174.245 2593.25 171.6 2590 171.6 2586.75 171.6 2584.1 174.245 2584.1 177.5 2584.1 180.755 2586.75 183.4 2590 183.4 2593.25 183.4 2595.9 180.755 2595.9 177.5ZM2594.1 177.5C2594.1 179.76 2592.26 181.6 2590 181.6 2587.74 181.6 2585.9 179.76 2585.9 177.5 2585.9 175.24 2587.74 173.4 2590 173.4 2592.26 173.4 2594.1 175.24 2594.1 177.5ZM2622.39 174.913 2632.41 164.887C2633.73 163.573 2633.73 161.43 2632.41 160.113L2622.39 150.087C2621.07 148.773 2618.93 148.773 2617.61 150.087L2607.59 160.113C2606.27 161.427 2606.27 163.57 2607.59 164.887L2617.61 174.913C2618.27 175.57 2619.14 175.9 2620 175.9 2620.87 175.9 2621.73 175.57 2622.39 174.913ZM2621.11 151.36 2631.14 161.385C2631.75 162 2631.75 163 2631.14 163.613L2621.11 173.637C2620.5 174.253 2619.5 174.253 2618.89 173.637L2608.86 163.613C2608.25 163 2608.25 162 2608.86 161.385L2618.89 151.36C2619.19 151.053 2619.59 150.9 2620 150.9 2620.41 150.9 2620.81 151.055 2621.11 151.36Z" fill="#FFFFFF" fill-rule="nonzero" fill-opacity="1"/></g></g></svg>