<svg xmlns="http://www.w3.org/2000/svg" viewBox="0 0 32 32"><defs><linearGradient id="a" x1="-1256" y1="-5638.4" x2="-1256" y2="-5630.4" gradientTransform="matrix(1 0 0 -1 1259.5 -5613.4)" gradientUnits="userSpaceOnUse"><stop offset="0" stop-opacity="0"/><stop offset=".83"/></linearGradient><linearGradient id="b" x1="-1236.7" y1="-5652" x2="-1239.9" y2="-5646.4" gradientTransform="matrix(1 0 0 -1 1255.5 -5629.3)" gradientUnits="userSpaceOnUse"><stop offset="0" stop-opacity="0"/><stop offset=".7"/></linearGradient><linearGradient id="c" x1="-1818" y1="-1524.4" x2="-1818" y2="-1516.4" gradientTransform="matrix(1 0 0 -1 1846.5 -1509.4)" href="#a"/><linearGradient id="d" x1="-1798.7" y1="-1538" x2="-1801.9" y2="-1532.4" gradientTransform="matrix(-1 0 0 1 -1785.5 1547.3)" href="#b"/><linearGradient id="e" x1="0" y1="32" x2="32" y2="0" gradientUnits="userSpaceOnUse"><stop offset=".1" stop-color="#a56eff"/><stop offset=".9" stop-color="#0f62fe"/></linearGradient><mask id="m" x="0" y="0" width="32" height="32" maskUnits="userSpaceOnUse"><path d="M30.9 14h-2C27.9 7.8 22.5 3 16 3c-4.6 0-8.7 2.4-11 6.1A8 8 0 0 1 9 8c3.7 0 6.8 2.6 7.7 6h-2.1c-.8-2.3-3-4-5.6-4a6 6 0 0 0-4.8 2.4l-2.5-.8C3.6 5.5 9.3 1 16 1c7.6 0 13.9 5.7 14.9 13zm-3.1 5.6A6 6 0 0 1 23 22c-2.6 0-4.8-1.7-5.6-4h-2.1c.9 3.4 4 6 7.7 6a8 8 0 0 0 4-1.1C24.7 26.6 20.6 29 16 29 9.5 29 4.1 24.2 3.2 18H1.1C2.1 25.3 8.4 31 16 31c6.7 0 12.4-4.5 14.3-10.6l-2.5-.8z" fill="#fff"/><path fill="url(#a)" d="M0 17h7v8H0z"/><path fill="url(#b)" d="M21 17.5h-6V25l6-3.5z"/><path fill="url(#c)" d="M25 7h7v8h-7z" transform="rotate(-180 28.5 11)"/><path fill="url(#d)" d="M11 14.5h6V7l-6 3.5z"/></mask></defs><g style="mask:url(#m)"><path fill="url(#e)" d="M0 0h32v32H0z"/></g><circle cx="30" cy="16" r="2" fill="#001d6c"/><circle cx="2" cy="16" r="2" fill="#001d6c"/><circle cx="16" cy="16" r="2" fill="#001d6c"/></svg>
