<svg xmlns="http://www.w3.org/2000/svg" viewBox="0 0 32 32"><defs><linearGradient id="a" x1="1186.5" y1="2863.2" x2="1199.8" y2="2845.1" gradientTransform="matrix(.83 .56 -.27 .41 -198.9 -1827.4)" gradientUnits="userSpaceOnUse"><stop offset=".32"/><stop offset=".9" stop-opacity="0"/></linearGradient><linearGradient id="b" x1="233.9" y1="-2748.7" x2="247.2" y2="-2766.8" gradientTransform="rotate(-146.2 341 -632.1) scale(1 .49)" href="#a"/><linearGradient id="c" x1="-2317" y1="-8295" x2="-2317" y2="-8299" gradientTransform="translate(2333 8314)" gradientUnits="userSpaceOnUse"><stop offset="0" stop-opacity="0"/><stop offset=".7"/></linearGradient><linearGradient id="d" x1="-2310" y1="-8295" x2="-2310" y2="-8299" gradientTransform="translate(2326 8307)" href="#c"/><linearGradient id="e" x1="-2324" y1="-8295" x2="-2324" y2="-8299" gradientTransform="translate(2340 8321)" href="#c"/><linearGradient id="f" x1="0" y1="32" x2="32" y2="0" gradientUnits="userSpaceOnUse"><stop offset=".1" stop-color="#a56eff"/><stop offset=".9" stop-color="#0f62fe"/></linearGradient><mask id="m" x="0" y="0" width="32" height="32" maskUnits="userSpaceOnUse"><path d="M16 1A14.9 14.9 0 0 0 5.5 5.3l1.4 1.4a12.9 12.9 0 0 1 9.1-3.7c1.7 0 3 1.3 3 3s-1.3 3-3 3h-1v2h1c2.8 0 5-2.2 5-5 0-.2 0-.5-.1-.7a6.5 6.5 0 0 1 1.6 4.2c0 3.6-2.9 6.5-6.5 6.5h-1v2h1c4.7 0 8.5-3.8 8.5-8.5 0-.8-.1-1.5-.3-2.2a9.9 9.9 0 0 1 1.8 5.7c0 5.5-4.5 10-10 10h-1v2h1c6.6 0 12-5.4 12-12 0-.9-.1-1.8-.3-2.7a12.9 12.9 0 0 1 1.3 5.7c0 2.1-.5 4.1-1.5 6l1.8.9A15 15 0 0 0 31 16c0-8.3-6.7-15-15-15z" fill="#fff"/><path d="M16 31c-8.3 0-15-6.7-15-15 0-2.4.6-4.8 1.7-6.9l1.8.9A12.8 12.8 0 0 0 3 16c0 7.2 5.8 13 13 13 3.4 0 6.7-1.3 9.1-3.7l1.4 1.4A14.9 14.9 0 0 1 16 31z" fill="#fff"/><path fill="url(#a)" d="m8 9-8-9h16l2.3 3.3z"/><path fill="url(#b)" d="m24 23 8 9H16l-2.3-3.3z"/><path fill="url(#c)" d="M14 15h4v4h-4z" transform="rotate(-90 16 17)"/><path fill="url(#d)" d="M14 8h4v4h-4z" transform="rotate(-90 16 10)"/><path fill="url(#e)" d="M14 22h4v4h-4z" transform="rotate(-90 16 24)"/></mask></defs><g style="mask:url(#m)"><path fill="url(#f)" d="M0 0h32v32H0z"/></g><circle cx="6" cy="6" r="2" fill="#001d6c"/><circle cx="26" cy="26" r="2" fill="#001d6c"/><path fill="#001d6c" d="M11 23h2v2h-2z" transform="rotate(90 12 24)"/><path fill="#001d6c" d="M11 9h2v2h-2z" transform="rotate(90 12 10)"/><path fill="#001d6c" d="M11 16h2v2h-2z" transform="rotate(90 12 17)"/></svg>
