<svg xmlns="http://www.w3.org/2000/svg" viewBox="0 0 32 32"><defs><linearGradient id="a" x1="1186.5" y1="2863.2" x2="1199.8" y2="2845.1" gradientTransform="matrix(.83 .56 -.27 .41 -198.9 -1827.4)" gradientUnits="userSpaceOnUse"><stop offset=".3"/><stop offset="1" stop-opacity="0"/></linearGradient><linearGradient id="b" x1="-5.6" y1="-2403" x2="7.7" y2="-2421.1" gradientTransform="rotate(-146.2 195.4 -583.3) scale(1 .49)" href="#a"/><linearGradient id="c" x1="10" y1="16" x2="10" y2="12" gradientUnits="userSpaceOnUse"><stop offset="0" stop-opacity="0"/><stop offset=".7"/></linearGradient><linearGradient id="d" x1="22" y1="-2864.2" x2="22" y2="-2868.2" gradientTransform="matrix(1 0 0 -1 0 -2848.2)" href="#c"/><linearGradient id="e" x1="0" y1="32" x2="32" y2="0" gradientUnits="userSpaceOnUse"><stop offset=".1" stop-color="#a56eff"/><stop offset=".9" stop-color="#0f62fe"/></linearGradient><mask id="m" x="0" y="0" width="32" height="32" maskUnits="userSpaceOnUse"><path d="M16 1A14.9 14.9 0 0 0 5.5 5.3l1.4 1.4A12.9 12.9 0 0 1 16 3c2.8 0 5.4.9 7.5 2.4-.3 0-.5-.1-.8-.1-4.2 0-7.7 3.4-7.7 7.7h2a5.7 5.7 0 0 1 5.7-5.7 5.6 5.6 0 0 1 4.9 2.9c.2.4.4.9.6 1.3a5 5 0 0 0-2.2-.5c-2.8 0-5 2.2-5 5v3h2v-3c0-1.7 1.3-3 3-3s3 1.3 3 3c0 2.1-.5 4.1-1.5 6l1.8.9A15 15 0 0 0 31 16c0-8.3-6.7-15-15-15zM25.1 25.3A12.9 12.9 0 0 1 16 29c-2.8 0-5.4-.9-7.5-2.4.3 0 .5.1.8.1 4.2 0 7.7-3.4 7.7-7.7h-2a5.7 5.7 0 0 1-5.7 5.7 5.7 5.7 0 0 1-5.1-3.3 13.3 13.3 0 0 1-.4-.9c.7.3 1.4.5 2.2.5 2.8 0 5-2.2 5-5v-3h-2v3c0 1.7-1.3 3-3 3s-3-1.3-3-3c0-2.1.5-4.1 1.5-6L2.7 9.1A15 15 0 0 0 1 16c0 8.3 6.7 15 15 15 4 0 7.7-1.5 10.5-4.3l-1.4-1.4z" fill="#fff"/><path fill="url(#a)" d="M8 9 0 0h16l2.3 3.3z"/><path fill="url(#b)" d="m24 23 8 9H16l-2.3-3.3z"/><path fill="url(#c)" d="M8 12h4v4H8z"/><path fill="url(#d)" d="M20 16h4v4h-4z"/></mask></defs><g style="mask:url(#m)"><path fill="url(#e)" d="M0 0h32v32H0z"/></g><circle cx="6" cy="6" r="2" fill="#001d6c"/><circle cx="26" cy="26" r="2" fill="#001d6c"/><path fill="#001d6c" d="M21 21h2v2h-2z" transform="rotate(90 22 22)"/><path fill="#001d6c" d="M15 15h2v2h-2z" transform="rotate(90 16 16)"/><path fill="#001d6c" d="M9 9h2v2H9z" transform="rotate(-90 10 10)"/></svg>
