<svg xmlns="http://www.w3.org/2000/svg" viewBox="0 0 32 32"><defs><linearGradient id="a" x1="1186.5" y1="2863.2" x2="1199.8" y2="2845.1" gradientTransform="matrix(.83 .56 -.27 .41 -198.9 -1827.4)" gradientUnits="userSpaceOnUse"><stop offset=".32"/><stop offset=".9" stop-opacity="0"/></linearGradient><linearGradient id="b" x1="-277.8" y1="-1578.6" x2="-264.5" y2="-1596.6" gradientTransform="rotate(-146.2 -2.3 -421.6) scale(1 .49)" href="#a"/><linearGradient id="c" x1="-2321" y1="-8295" x2="-2321" y2="-8299" gradientTransform="translate(2337 8318)" gradientUnits="userSpaceOnUse"><stop offset="0" stop-opacity="0"/><stop offset=".7"/></linearGradient><linearGradient id="d" x1="8331" y1="-2307" x2="8331" y2="-2311" gradientTransform="translate(-8315 2320)" href="#c"/><linearGradient id="e" x1="0" y1="32" x2="32" y2="0" gradientUnits="userSpaceOnUse"><stop offset=".1" stop-color="#a56eff"/><stop offset=".9" stop-color="#0f62fe"/></linearGradient><mask id="m" x="0" y="0" width="32" height="32" maskUnits="userSpaceOnUse"><path d="M16 1A14.9 14.9 0 0 0 5.5 5.3l1.4 1.4A12.9 12.9 0 0 1 16 3c4.3 0 8 4 8 8.5 0 4.7-3.8 8.5-8.5 8.5H15v2h.5c5.8 0 10.5-4.7 10.5-10.5 0-1.9-.6-3.7-1.5-5.3C27.3 8.6 29 12.1 29 16c0 2.1-.5 4.1-1.5 6l1.8.9A15 15 0 0 0 31 16c0-8.3-6.7-15-15-15z" fill="#fff"/><path d="M25.1 25.3A12.9 12.9 0 0 1 16 29c-4.3 0-8-4-8-8.5 0-4.7 3.8-8.5 8.5-8.5h.5v-2h-.5C10.7 10 6 14.7 6 20.5c0 1.9.6 3.7 1.5 5.3C4.7 23.4 3 19.9 3 16c0-2.1.5-4.1 1.5-6L2.7 9.1A15 15 0 0 0 1 16c0 8.3 6.7 15 15 15 4 0 7.7-1.5 10.5-4.3l-1.4-1.4z" fill="#fff"/><path fill="url(#a)" d="M8 9 0 0h16l2.3 3.3z"/><path fill="url(#b)" d="m24 23 8 9H16l-2.3-3.3z"/><path fill="url(#c)" d="M14 19h4v4h-4z" transform="rotate(-90 16 21)"/><path fill="url(#d)" d="M14 9h4v4h-4z" transform="rotate(90 16 11)"/></mask></defs><g style="mask:url(#m)"><path fill="url(#e)" d="M0 0h32v32H0z"/></g><circle cx="6" cy="6" r="2" fill="#001d6c"/><circle cx="26" cy="26" r="2" fill="#001d6c"/><path fill="#001d6c" d="M11 20h2v2h-2z" transform="rotate(90 12 21)"/><path fill="#001d6c" d="M19 10h2v2h-2z" transform="rotate(90 20 11)"/></svg>
